<svg xmlns="http://www.w3.org/2000/svg" viewBox="0 0 2047.86 2048.47"><defs><style>.cls-1{fill:#fff;}.cls-2{fill:#01fa78;}.cls-3{fill:#00eca9;}.cls-4{fill:#282a2a;}.cls-5{fill:#01f882;}.cls-6{fill:#01e7b9;}.cls-7{fill:#00ef9f;}.cls-8{fill:#01f296;}.cls-9{fill:#01f48c;}.cls-10{fill:#00fa78;}.cls-11{fill:#01e8b0;}.cls-12{fill:#00f686;}.cls-13{fill:#00e6bc;}.cls-14{fill:#00e3c6;}.cls-15{fill:#01ded2;}</style></defs><title>icon_2</title><g id="Layer_2" data-name="Layer 2"><g id="Layer_1-2" data-name="Layer 1"><circle class="cls-1" cx="1023.93" cy="1023.93" r="1023.93"/><path class="cls-2" d="M989.86,0h72c3.93.51,7.85,1.35,11.8,1.48,45.3,1.49,90.2,6.87,134.71,15.05q205.47,37.74,380,152.81c8.86,5.84,17.32,12.28,26,18.44-12.87,9.19-25.84,18.25-38.58,27.62-9.28,6.83-18.79,13.51-27.21,21.33-6.34,5.89-13,9.93-21.4,11.52-3.74-2.13-7.57-4.11-11.21-6.41a915.35,915.35,0,0,0-278.54-117.13,898.89,898.89,0,0,0-191.76-24.38c-23.95-.43-48-.24-71.89,1.51-31.82,2.33-63.69,5.26-95.23,10-101.64,15.37-197.76,47.83-288.22,96.66C418.05,301.5,287,435.21,198.62,609.7c-72.54,143.17-104.26,295.56-97.27,456A896.36,896.36,0,0,0,126,1240.46c6,24.54,13.29,48.77,20,73.14-1.66,2.28-2.89,5.13-5,6.75q-32.19,24.18-64.67,48c-4.21,3.09-8,9.79-14,8.61a54.83,54.83,0,0,1-2-5.48,1005.35,1005.35,0,0,1-52.49-220c-2.63-21.78-4.36-43.67-6.5-65.51-.09-2.56-.19-5.12-.28-7.68-.22-3.39-.45-6.78-.67-10.17-1.28-49.64,0-99.16,5-148.61,5.8-57.11,16-113.37,31.62-168.56C98.46,534.27,217.41,355.73,394.55,217,569.15,80.2,768.72,10,989.86,0Z"/><path class="cls-3" d="M2029.64,830c2.62,14,5.69,28,7.76,42.09,5,33.89,9,67.89,9,102.24,0,3.9,1,7.81,1.48,11.71v76q-.77,13-1.54,26-.46,6-.92,12.09c-.21.17-.61.37-.58.5a7.39,7.39,0,0,0,.46,1.32c-.07,1.46-.15,2.91-.22,4.36l-1,8.15c-1.24,9.62-2.59,19.23-3.66,28.87-.54,4.89-.55,9.85-.8,14.78-.23.15-.67.34-.65.47a6.93,6.93,0,0,0,.41,1.37q-.21,2.23-.42,4.44l-1,3.81c-.1,1.3-.21,2.6-.32,3.9-.23.16-.67.35-.66.48a7.94,7.94,0,0,0,.45,1.38l-.51,4.44-1,3.71c-.12,1.34-.25,2.69-.37,4-1.23,1.54-2.23,3.39-3.75,4.57-15.14,11.79-30.29,23.58-45.61,35.13q-30.12,22.73-60.57,45c-3.32,2.42-7.64,3.48-11.49,5.16.59-2.91,1-5.87,1.79-8.74,20.11-74,31.17-149.21,32.11-225.88.25-20,0-40,0-60q-.39-7.35-.8-14.69-.4-5.41-.83-10.83c.19-.18.57-.41.54-.52a7.28,7.28,0,0,0-.62-1.21c-.1-1.58-.19-3.15-.29-4.73l-.76-8.69-.81-6.9c-.06-1.23-.13-2.46-.2-3.69l-.24-2.63q-.4-3.43-.79-6.87c-.24-1.61-.47-3.22-.71-4.83-.09-1.22-.17-2.45-.26-3.67-.1-.82-.2-1.64-.31-2.45l-.63-5c-.28-1.63-.55-3.26-.82-4.89l-.28-3.7-.49-3.78a2.86,2.86,0,0,0-.32-1.7c-.28-1.55-.56-3.09-.83-4.64,14.71-4.89,26.25-14.94,38.26-24.06,13.94-10.58,27.36-21.84,41.12-32.66C2021.82,826.19,2026.07,824.21,2029.64,830Z"/><path class="cls-1" d="M2047.86,1088h-1.54"/><path class="cls-4" d="M1939.42,892.47c.16,1.26.33,2.52.49,3.78s.19,2.46.28,3.7c.27,1.63.55,3.26.82,4.88s.43,3.32.64,5l.3,2.45c.09,1.23.18,2.45.26,3.68.24,1.61.48,3.22.71,4.82.26,2.29.53,4.58.79,6.87.08.88.16,1.76.25,2.64.06,1.22.13,2.46.2,3.69.26,2.29.53,4.59.8,6.88q.38,4.35.77,8.7c.09,1.58.19,3.15.28,4.73a1.52,1.52,0,0,0,.09,1.73c.27,3.61.55,7.22.82,10.83l.81,14.69c0,20,.26,40,0,60-1,76.67-12,151.93-32.12,225.89-.78,2.86-1.2,5.82-1.79,8.74-1,2.8-2.19,5.56-3,8.41q-62.83,212.31-214.75,373.37a914.66,914.66,0,0,1-213.56,168.33q-175.63,100.46-377.17,118.24l-41.75,3.65c-2-.12-4-.34-6-.33-15,.07-29.95.34-44.93.24-14.62-.1-29.21.4-43.86-1.46-22.27,1.55-43-3.72-64.47-6.31-58.61-7.09-115.77-20.81-172-38.47-7.42-2.33-15-4.19-22.47-6.27-6-3-15.87-2-22.12-4.38-46.84-18.06-87.78-44.55-130.9-70.19-19.08-11.35-37.74-23.41-56.58-35.15-4.22-3.21-8.36-6.54-12.67-9.62-49.91-35.65-95.5-76.26-138.34-120a68.66,68.66,0,0,0-4.63-6.28c-28.16-30.66-54.45-62.84-78-97.15-12.42-18.06-24.21-36.55-36.29-54.85-2.46-4.18-5.06-8.29-7.38-12.55-21-38.52-41-77.55-57-118.46-6.91-17.62-13.41-35.4-20.09-53.11-6.71-24.37-14-48.61-20-73.15a895.37,895.37,0,0,1-24.66-174.75c-7-160.44,24.73-312.84,97.27-456C286.77,435.35,417.79,301.64,590,208.67,680.47,159.84,776.6,127.39,878.24,112c31.53-4.77,63.4-7.7,95.23-10,23.87-1.75,47.93-1.94,71.88-1.51a899.07,899.07,0,0,1,191.77,24.39A915.4,915.4,0,0,1,1515.65,242c3.64,2.29,7.47,4.27,11.22,6.4,1.82,1.42,3.56,3,5.48,4.23a932.32,932.32,0,0,1,150.76,124.45c5.13,5.23,10.42,10.28,15.64,15.42,1.87,2.32,3.6,4.77,5.61,6.95a882.83,882.83,0,0,1,105.27,138.74c12.46,20.37,24,41.28,36,61.94.85,2.14,1.54,4.37,2.59,6.41,24.9,48.27,44.67,98.6,60.57,150.49,13,42.31,21.91,85.55,29.44,129.1.28,1.55.55,3.1.83,4.64-.13.19-.41.44-.37.56A8,8,0,0,0,1939.42,892.47Zm-640.72,489.9q0-30.12,0-60.23c.2-18.84.55-37.67.55-56.51,0-19.83-.34-39.66-.53-59.49.23-8,.49-16,.7-23.93.69-25.94,24.54-46.15,51.31-42.48,12.27,1.68,21.84,7.14,30.63,15,8.45,11.27,11.62,23.86,11.11,38-.49,13.77.39,27.58.66,41.38,0,24.73-.15,49.47.16,74.2a38.63,38.63,0,0,0,8.16,23.9c8.31,17.9,33.42,34.71,62.42,29.16,27.56-5.29,48-27.94,49.23-55.37.84-19.25,0-38.57-.17-57.85q0-50,0-100,0-49,0-98c.19-7.27.29-14.54.6-21.8,1.07-25.63,21.84-45.68,47.44-44.51,8.29.38,16.42,4.16,24.62,6.39,14.65,11.32,21.89,26.06,22,44.74,0,5.73,2.73,11.45,4.2,17.18,9.57,26,36.16,41.68,64.1,37.81,27.6-3.83,50.46-27.51,51.54-55.14.87-22.19,0-44.44,0-66.67.1-21.8.68-43.61,0-65.38-.21-6.94-3.67-13.78-5.64-20.67a7.58,7.58,0,0,0-.35-1.94c-11.08-22.85-37.63-37.18-61.64-33.3-27.93,4.53-48.54,24.91-52.19,51.55-.58,4.27-1,8.59-2,12.79-5.28,23-28.06,39.49-52.43,35.43-14.23-2.37-24.93-9.8-33.29-21.16-5.33-10.29-6.53-21.25-6.44-32.75.23-30.86-.18-61.72-.34-92.58.06-31.95,1.3-64-.11-95.85-1.86-42.27-48.69-68.65-86.56-49.52-23.8,12-34.17,32.51-34.18,58.7q0,82.92,0,165.85c0,3,0,5.79.23,8.75-.26,3.63-.19,7.39-.21,11-.1,19.64.32,39.29-.21,58.91-.64,23.9-20.52,43.32-44.36,44.13-17.22.58-30.52-6.93-41.07-20l-7.71-22.23c.13-1.65.35-3.3.35-5q0-165.1-.09-330.23c0-2.82-1-5.64-1.56-8.46,1.61-6.61.74-12.76-3.38-18.31a24.45,24.45,0,0,0-1-4.81c-10.31-24.05-34.75-37.75-62.32-35-24.7,2.43-48.22,22.36-50.91,47.54-2.63,24.63-1.17,49.69-1.51,74.56-.17,3.29-.51,6.58-.5,9.87q.19,45.06.48,90.13c-.17,3.62-.48,7.24-.49,10.86q-.09,46.56-.08,93.13c-3,11.16-7.77,21.27-17.18,28.52-17.57,13.54-36,13.42-55.12,3.46-15.82-11.88-22.1-27.92-21.52-47.41.4-13.51-.19-27.05-.33-40.58q0-38,0-76a22.82,22.82,0,0,0,.38-3c0-75,.19-150-.14-224.95-.13-29.36-23.33-54.47-52.15-57.9-30.22-3.59-58.72,15.45-65.92,44.59a88.41,88.41,0,0,0-2.11,20.75q-.19,123-.09,246c0,3.33.09,6.67-.08,10C962.41,811.79,942.16,831.43,918,832c-26,.58-47.63-20.46-48-47.28-.36-25.32,0-50.66-.13-76-.16-26.73-16.66-49.22-41.76-57.31-24.92-8-51.56.82-67.33,22.31-8.88,12.1-11.56,25.81-11.53,40.54.16,64,.07,128,.07,192,0,3.67.13,7.34-.1,11-1.82,29-28.52,49.46-56.41,43.29-22.37-5-37-23.32-37-46.94q-.11-98,0-196c0-4.34.09-8.68-.2-13a60.43,60.43,0,0,0-56.6-56.09c-28-1.61-55.46,16-62.62,48-1.51,6.73-1.27,13.92-1.28,20.9-.07,88,.08,176-.25,263.94,0,8.79-1.28,18.22-4.65,26.22-8.36,19.8-29.84,30.18-51,26.34-20.34-3.69-36.47-22.19-37.56-43.64-.49-9.65.1-19.34-.25-29-1.3-36.65-34.61-64-70.15-57.68-31,5.48-50.84,30-50.89,63.32q-.14,110.49.09,221a79.72,79.72,0,0,0,2.6,20.71c8.06,29.37,36.07,47.44,66.63,43.53,28.53-3.65,51-29,51.77-58.61.26-10-.3-20,.43-30,1.67-22.89,21.45-41.08,44.69-41.68,24.28-.63,44.75,16.13,47.58,39.42,1,8.23,1,16.6,1.38,24.9v138c0,22.83-.09,45.65.1,68.47,0,3.19,1.44,6.36,2.21,9.54,6.68,27.53,33.42,46.29,62.91,44.14,28.52-2.07,53.52-26.53,54.65-55.42,1-25.53.09-51.14,0-76.71v-76c.15-4.31.34-8.61.43-12.91.45-22.7,16.36-41.13,38.48-45.59,9.6-1.94,18.38.48,27.38,2.62,19.83,11.22,29.28,28.06,27.73,51a74.27,74.27,0,0,0,.42,8.92c.56,14.56-1,29.6,2.14,43.59,6.46,29,34.76,47.31,64.87,44.34,27.66-2.72,52.4-27.5,52.86-55.13.69-40.91,0-81.85-.11-122.79v-92c.14-4.31.24-8.63.42-13,1.25-29.53,26.86-49.76,53.89-45.49,17.77,2.8,29.17,13.24,36.88,28.69,1,10.46,2.74,20.91,2.91,31.38.51,32.12.43,64.25.58,96.37q0,46,0,92c-.15,17.51-.44,35-.43,52.55,0,23.14.27,46.28.42,69.43-.15,11.23-.45,22.45-.43,33.68.06,25.45.28,50.89.43,76.34-.13,13.64-.59,27.28-.33,40.91a60,60,0,0,0,60.32,59.2c33.16,0,59.46-25.76,59.9-59.35.39-29.62.16-59.25.11-88.88,0-13.3-.27-26.6-.42-39.91q0-55,0-110c.15-5.64.24-11.29.47-16.93,1.25-30.68,24.6-50.94,54.35-47.08,3.6.47,7.13,1.45,10.7,2.19a20.54,20.54,0,0,0,2.34,1.77c18.16,10.12,27.3,25.22,26.42,46.33-.36,8.57.36,17.18.58,25.78-.21,30.54-.64,61.08-.43,91.62,0,6.12,2.55,12.22,3.93,18.34,6.59,22.88,34.07,44.56,65.26,39.36,34.21-5.7,53-35.06,51.3-61.6A1.09,1.09,0,0,0,1298.7,1382.37ZM380.91,846.78c33.53,0,60.55-26.89,60.4-60.09s-27.46-60.48-60.52-60.43-61,27.56-60.4,60.56C321.17,827.27,354.23,848.22,380.91,846.78Zm428.92,659.51c33.64,0,60.06-26.56,60-60.28a60.19,60.19,0,1,0-60,60.28Zm857.44-239.88c33.7,0,60.38-26.48,60.43-60a60.23,60.23,0,0,0-120.46-.22C1607.19,1240.07,1633.47,1266.42,1667.27,1266.41Z"/><path class="cls-5" d="M1699,392.35c-5.22-5.14-10.52-10.2-15.64-15.42a931.28,931.28,0,0,0-150.76-124.45c-1.92-1.27-3.66-2.82-5.49-4.23,8.35-1.59,15.06-5.63,21.4-11.52,8.42-7.82,17.93-14.5,27.21-21.33,12.74-9.37,25.71-18.43,38.58-27.62,5.21,3.5,10.68,6.67,15.59,10.55,21.65,17.06,43.72,33.66,64.52,51.72,19,16.45,36.46,34.55,54.58,51.95,5,4.79,9.9,9.69,14.85,14.54l1.46,1.49.52.53,1.42,1.47.51.1.07.52a3.93,3.93,0,0,0,1.34,1.38l.55.12.11.55a2.71,2.71,0,0,0,1.07,1.08l5.14,5.87c-.85,7-7,9.23-11.62,12.77Q1731.79,367.46,1699,392.35Z"/><path class="cls-5" d="M145.26,1312c6.69,17.71,13.94,37.12,20.85,54.74,16,40.91,36,79.93,57,118.46,2.32,4.26,4.91,8.37,7.38,12.55-2.62,1.28-5.53,2.19-7.82,3.91-16,12-31.93,24.23-47.87,36.37-8.32,6.33-15.79,14.1-26.77,16-5.16-8.06-10.82-15.83-15.4-24.2-27-49.32-50.95-100-70.32-152.85A14.17,14.17,0,0,1,62,1374c6,1.18,10.14-2.58,14.35-5.67q32.46-23.82,64.67-48C143.13,1318.73,143.6,1314.26,145.26,1312Z"/><path class="cls-1" d="M1.42,1085.89c-.09-2.56-.19-5.12-.28-7.68C1.23,1080.77,1.33,1083.33,1.42,1085.89Z"/><path class="cls-6" d="M1063.83,1948q20.88-1.82,41.75-3.64,201.66-17.43,377.18-118.24a914.65,914.65,0,0,0,213.56-168.34q151.52-161.17,214.75-373.36c.84-2.85,2-5.61,3-8.41,3.85-1.69,8.17-2.75,11.49-5.17q30.48-22.23,60.57-45c15.32-11.55,30.47-23.34,45.61-35.13,1.52-1.18,2.52-3,3.75-4.57-5,25.77-9,51.77-15.12,77.27C1980.83,1428.51,1905,1575.2,1792.21,1702q-227.82,256.17-564.14,326.34a902.27,902.27,0,0,1-136.38,18c-8,.41-15.89,1.35-23.83,2l-86,.1c-13.12-.95-26.25-1.82-39.37-2.88-3.57-.28-7.11-1.13-10.66-1.71-.87-5.15,3.5-6.86,6.44-9.14,15.18-11.75,30.56-23.24,45.83-34.88,15.53-11.84,31.09-23.65,46.49-35.66,9.23-7.19,17.08-17,30.87-14.59C1062.13,1949.73,1063,1948.55,1063.83,1948Z"/><path class="cls-3" d="M1063.83,1948c-.79.57-1.7,1.75-2.37,1.63-13.79-2.44-21.64,7.4-30.87,14.59-15.4,12-31,23.82-46.49,35.66-15.27,11.64-30.65,23.13-45.83,34.88-2.94,2.28-7.31,4-6.44,9.14l-6.06-.19-12.18-1.6-7.85-.52-8.63-1.34-7.37-.64-8.34-1.43c-18-2.76-36-4.94-53.85-8.38a994.65,994.65,0,0,1-204.64-62.9,56.6,56.6,0,0,1-5.17-2.84c4.38-2,9-3.7,13.07-6.19,2.78-1.68,4.66-4.76,7.29-6.75,21.39-16.15,42.9-32.15,64.28-48.31,2.83-2.14,5.16-4.92,7.73-7.41,7.49,2.08,15,3.95,22.47,6.27,56.26,17.66,113.43,31.39,172,38.48,21.44,2.59,41.65,4.86,64.48,6.3,14.65,1.86,29.24,1.37,43.86,1.47,15,.1,29.32,0,44.3,0C1059.23,1947.85,1061.85,1947.87,1063.83,1948Z"/><path class="cls-7" d="M710.11,1895.38c-2.57,2.49-4.9,5.27-7.73,7.41C681,1919,659.49,1935,638.1,1951.1c-2.63,2-4.51,5.07-7.29,6.75-4.1,2.49-8.69,4.17-13.07,6.19-14.83-6.64-29.86-12.88-44.48-20a988.23,988.23,0,0,1-151.85-91.63c-1.85-1.35-3.5-3-5.24-4.51,5.14-2.88,10.71-5.21,15.35-8.75,23.13-17.66,46-35.63,69-53.49,18.85,11.74,37.5,23.8,56.58,35.14,43.13,25.65,85.26,47.77,132.1,65.82C695.43,1889,704.09,1892.36,710.11,1895.38Z"/><path class="cls-8" d="M500.5,1785.67c-23,17.86-45.85,35.83-69,53.49-4.64,3.54-10.21,5.87-15.35,8.75-12.21-9-24.86-17.55-36.56-27.21a1079,1079,0,0,1-111.49-105.49,28.3,28.3,0,0,1-2.23-3.22c5.1-2.08,10.8-3.3,15.17-6.4,13.92-9.87,27.24-20.59,41-30.69,8.95-6.57,18.27-12.62,27.43-18.9,42.84,43.79,88.43,84.4,138.33,120C492.15,1779.13,496.28,1782.46,500.5,1785.67Z"/><path class="cls-9" d="M349.5,1656c-9.16,6.28-18.48,12.33-27.43,18.9-13.77,10.1-27.09,20.82-41,30.69-4.37,3.1-10.07,4.32-15.17,6.4-16-18.69-33-36.57-47.7-56.24-22.66-30.38-43.71-62-65.36-93.09a87.62,87.62,0,0,1-4.75-8.68c11-1.87,18.45-9.64,26.77-16,15.94-12.14,31.84-24.34,47.87-36.37,2.29-1.72,5.2-2.63,7.82-3.91,12.08,18.3,23.87,36.79,36.29,54.85,23.59,34.31,49.88,66.48,78,97.14A72.07,72.07,0,0,1,349.5,1656Z"/><path class="cls-6" d="M913.59,2042.09l12.18,1.6Z"/><path class="cls-6" d="M881.4,2038.16l8.34,1.43Z"/><path class="cls-6" d="M897.11,2040.23l8.63,1.34Z"/><path class="cls-6" d="M2044,1114.42l1-8.15Z"/><path class="cls-6" d="M2037.93,1168.16l1-3.81Z"/><path class="cls-6" d="M2035.9,1182.07l1-3.71Z"/><path class="cls-6" d="M2045.28,1101.91a7.39,7.39,0,0,1-.46-1.32c0-.13.37-.33.58-.5A1.71,1.71,0,0,1,2045.28,1101.91Z"/><path class="cls-6" d="M2039.34,1159.91a6.93,6.93,0,0,1-.41-1.37c0-.13.42-.32.65-.47A1.54,1.54,0,0,1,2039.34,1159.91Z"/><path class="cls-6" d="M2037.4,1173.92a7.94,7.94,0,0,1-.45-1.38c0-.13.43-.32.66-.48A1.51,1.51,0,0,1,2037.4,1173.92Z"/><path class="cls-7" d="M1938.54,886c-7.54-43.55-16.47-86.79-29.44-129.1-15.91-51.89-35.67-102.22-60.58-150.49-1-2-1.73-4.27-2.59-6.41,2.68-1,5.74-1.52,8-3.17,11.13-8.29,22.1-16.79,33-25.4,13.19-10.42,26.23-21,39.34-31.53,10.78,21.35,22.25,42.38,32.21,64.11,32.33,70.5,55.4,144,70.74,220a48.71,48.71,0,0,1,.49,5.94c-3.57-5.75-7.82-3.77-11.72-.7-13.76,10.82-27.18,22.08-41.12,32.66C1964.79,871,1953.25,881.09,1938.54,886Z"/><path class="cls-9" d="M1926.2,539.88c-13.11,10.52-26.15,21.11-39.34,31.53-10.88,8.61-21.85,17.11-33,25.4-2.21,1.65-5.27,2.14-8,3.17-12-20.67-23.58-41.57-36-61.94a883.52,883.52,0,0,0-105.27-138.75c-2-2.18-3.75-4.62-5.61-6.94q32.71-25,65.41-49.93c4.62-3.54,10.77-5.78,11.62-12.77,11.78,13.06,23.94,25.8,35.25,39.25a982.34,982.34,0,0,1,94.87,134.29c6.27,10.66,11.91,21.7,17.84,32.57l1.29,2.09Z"/><path class="cls-7" d="M1925.3,537.85l-1.29-2.09Z"/><path class="cls-9" d="M1770.91,323.78a2.71,2.71,0,0,1-1.07-1.08C1770.6,322.68,1771,323,1770.91,323.78Z"/><path class="cls-9" d="M1769.18,322a3.93,3.93,0,0,1-1.34-1.38Z"/><path class="cls-9" d="M1767.26,320l-1.42-1.47Z"/><path class="cls-9" d="M1765.32,318l-1.46-1.49C1764.35,317,1764.83,317.53,1765.32,318Z"/><path class="cls-8" d="M1948,981.38q-.39-7.35-.8-14.7Q1947.6,974,1948,981.38Z"/><path class="cls-8" d="M1946,949.4c-.25-2.9-.51-5.8-.76-8.7C1945.48,943.6,1945.74,946.5,1946,949.4Z"/><path class="cls-8" d="M1944,927.49c-.27-2.29-.53-4.58-.8-6.87C1943.45,922.91,1943.71,925.2,1944,927.49Z"/><path class="cls-8" d="M1941.91,909.67l-.63-5Z"/><path class="cls-8" d="M1944.42,933.81c-.06-1.23-.13-2.46-.2-3.69C1944.29,931.35,1944.36,932.58,1944.42,933.81Z"/><path class="cls-8" d="M1942.48,915.79c-.09-1.22-.17-2.45-.26-3.67C1942.31,913.34,1942.39,914.57,1942.48,915.79Z"/><path class="cls-8" d="M1940.46,899.8c-.1-1.23-.19-2.46-.28-3.7C1940.27,897.34,1940.36,898.57,1940.46,899.8Z"/><path class="cls-8" d="M1946.36,955.86a1.54,1.54,0,0,1-.08-1.74,7.78,7.78,0,0,1,.62,1.22C1946.93,955.45,1946.55,955.68,1946.36,955.86Z"/><path class="cls-7" d="M1939.69,892.32a7.86,7.86,0,0,1-.69-1.14c0-.12.23-.38.36-.57A2.84,2.84,0,0,1,1939.69,892.32Z"/><path class="cls-10" d="M535.66,1186c-.43-8.31-.38-16.67-1.38-24.91-2.84-23.29-23.3-40-47.58-39.41-23.24.6-43,18.78-44.7,41.68-.72,10-.16,20-.42,30-.77,29.58-23.24,55-51.77,58.61-30.56,3.91-58.57-14.16-66.63-43.53a79.86,79.86,0,0,1-2.61-20.72q-.27-110.48-.08-221c0-33.36,19.88-57.85,50.89-63.33,35.53-6.28,68.84,21,70.15,57.68.34,9.66-.25,19.35.24,29,1.1,21.46,17.23,40,37.56,43.64,21.2,3.85,42.68-6.53,51-26.34,3.38-8,4.63-17.42,4.66-26.21.33-88,.17-176,.25-263.95,0-7-.24-14.17,1.27-20.89,7.17-32,34.58-49.57,62.63-48a60.44,60.44,0,0,1,56.59,56.1c.3,4.31.2,8.66.2,13q0,98,0,196c0,23.62,14.65,42,37,47,27.89,6.17,54.59-14.3,56.4-43.3.23-3.65.1-7.33.1-11,0-64,.1-128-.06-192,0-14.74,2.65-28.44,11.52-40.54,15.78-21.5,42.42-30.34,67.34-22.31,25.1,8.09,41.6,30.58,41.75,57.3.15,25.33-.22,50.66.13,76,.38,26.82,22,47.85,48,47.28,24.21-.54,44.47-20.19,45.68-44.37.16-3.32.08-6.66.08-10q0-123,.09-246a88,88,0,0,1,2.1-20.76c7.21-29.14,35.7-48.18,65.93-44.58,28.81,3.43,52,28.54,52.15,57.89.33,75,.14,150,.13,224.95a23.17,23.17,0,0,1-.37,3c-7.52,5.81-15.12,11.51-22.53,17.45-10.86,8.7-21.49,17.7-32.4,26.34-15.06,11.94-30.39,23.56-45.44,35.52-22.07,17.51-44,35.22-66,52.8-17.62,14.06-35.31,28-52.95,42.07q-27.62,22-55.2,44c-17.13,13.6-34.39,27.06-51.49,40.71-12.94,10.34-25.67,20.95-38.59,31.32-17.59,14.11-35.26,28.1-52.9,42.14q-27.62,22-55.24,44c-17.13,13.6-34.2,27.29-51.5,40.67C552,1175,543.71,1180.33,535.66,1186Z"/><path class="cls-3" d="M964.42,1372c-.15-23.14-.41-46.28-.43-69.42,0-17.52.28-35,.44-52.56,4-1.25,8.82-1.51,11.94-3.93,20.43-15.82,40.48-32.12,60.67-48.24q27.56-22,55.16-44c13.25-10.48,26.75-20.65,40-31.19,13.71-10.94,27.1-22.3,40.82-33.25,19.68-15.71,39.54-31.18,59.29-46.8,16.1-12.74,32.21-25.47,48.17-38.38,9-7.25,17.64-14.86,26.45-22.31,10.55,13.12,23.84,20.64,41.06,20.05,23.85-.81,43.72-20.22,44.36-44.12.53-19.63.12-39.28.22-58.91,0-3.63-.09-7.25.17-10.88,8.07.26,14-5.12,19.59-9.58q28.34-22.35,56.44-45c12.33-9.93,24.43-20.14,36.8-30,2.16-1.72,5.18-2.36,7.8-3.49.16,30.86.56,61.72.33,92.58-.08,11.5,1.11,22.45,6.45,32.74-.69,1.45-1,3.36-2.13,4.29-21.21,17.47-42.34,35-63.83,52.16-19.14,15.27-38.82,29.85-58,45.06-21.79,17.27-43.22,35-64.93,52.36s-43.53,34.56-65.33,51.8c-20.76,16.41-41.6,32.74-62.33,49.2-11.93,9.46-23.62,19.21-35.58,28.63-6,4.69-12.29,8.91-18.45,13.35-3.56-.75-7.1-1.73-10.7-2.19-29.75-3.86-53.1,16.39-54.34,47.08-.23,5.64-.32,11.29-.47,16.93-2.26,1.22-4.75,2.14-6.74,3.7-12.21,9.55-24.31,19.25-36.45,28.89-17,13.54-33.88,27.37-51.27,40.46C981.8,1362.87,975.19,1371.08,964.42,1372Z"/><path class="cls-11" d="M1149.52,1222.17c6.16-4.44,12.49-8.66,18.45-13.35,12-9.42,23.65-19.17,35.58-28.63,20.73-16.46,41.57-32.79,62.33-49.2,21.8-17.24,43.63-34.44,65.33-51.8s43.14-35.09,64.93-52.36c19.19-15.21,38.87-29.79,58-45.06,21.49-17.13,42.62-34.69,63.83-52.16,1.12-.93,1.44-2.84,2.13-4.29,8.36,11.36,19.06,18.8,33.28,21.16,24.38,4.06,47.15-12.4,52.44-35.43,1-4.19,1.4-8.51,2-12.79,3.64-26.64,24.26-47,52.19-51.54,24-3.89,50.56,10.44,61.63,33.29a7.24,7.24,0,0,1,.35,2c-1.53.55-3.33.75-4.54,1.71q-25.26,20-50.38,40.13c-18.59,14.83-37.25,29.56-55.73,44.52-8.68,7-17,14.5-25.51,21.76-8.21-2.22-16.34-6-24.62-6.38-25.6-1.17-46.37,18.88-47.45,44.51-.3,7.26-.4,14.53-.6,21.79-3.54,1.59-7.56,2.56-10.55,4.87-14.36,11.14-28.41,22.69-42.63,34-23.79,18.95-47.67,37.77-71.35,56.85-2.88,2.32-4.72,5.9-7.05,8.9-8.78-7.91-18.35-13.36-30.62-15-26.77-3.67-50.62,16.54-51.31,42.48q-.33,12-.71,23.93c-2,1.35-4.35,2.41-6,4.11-2.76,2.79-4.67,6.54-7.67,9-29.08,23.45-58.37,46.64-87.46,70.09-5.65,4.56-11.42,7.85-18.92,6.88-.23-8.59-.94-17.21-.58-25.78.88-21.1-8.27-36.21-26.42-46.33A20.85,20.85,0,0,1,1149.52,1222.17Z"/><path class="cls-5" d="M535.66,1186c8.05-5.66,16.34-11,24.12-17,17.3-13.38,34.37-27.07,51.5-40.67q27.65-21.94,55.24-44c17.64-14,35.31-28,52.9-42.14,12.92-10.37,25.65-21,38.59-31.32,17.1-13.65,34.36-27.11,51.49-40.71q27.64-21.95,55.2-44c17.64-14,35.33-28,52.95-42.07,22-17.58,43.91-35.29,66-52.8,15-12,30.38-23.58,45.44-35.52,10.91-8.64,21.54-17.64,32.4-26.34,7.41-5.94,15-11.64,22.53-17.45v76c-2.25,1-4.83,1.67-6.71,3.18-16,12.89-31.67,26.11-47.72,38.9S997.08,895.2,981,907.94c-18.18,14.4-36.13,29.08-54.23,43.56q-27.91,22.35-56,44.56c-18.65,14.84-37.26,29.75-56,44.5-22.12,17.42-44.49,34.53-66.49,52.09-28,22.31-55.62,45-83.48,67.4q-30.2,24.3-60.57,48.36c-16.07,12.79-31.91,25.88-48.43,38.06-6.14,4.53-10.83,12.39-20.19,11.52Z"/><path class="cls-8" d="M1297.88,616.07c.54,2.82,1.56,5.64,1.56,8.46q.13,165.11.09,330.23c0,1.65-.23,3.31-.35,5-.44-6.89-1.13-13.77-1.27-20.67-.21-11.32,0-22.64-.16-34,0-1.4-1.21-2.79-1.86-4.18a17.23,17.23,0,0,0-3.46,1.65q-20.58,16.41-41.07,32.93c-12.35,10-24.47,20.31-36.93,30.17-20,15.82-40.28,31.26-60.26,47.1-12.71,10.08-25,20.73-37.66,30.85-17.33,13.83-35,27.27-52.31,41.12-12.16,9.71-23.85,20-36,29.7-14.77,11.75-29.63,23.41-44.88,34.52-5.57,4.07-10.09,11.32-18.87,9-.15-32.12-.07-64.25-.59-96.37-.16-10.47-1.89-20.92-2.9-31.39,3.3-1.42,7.06-2.25,9.81-4.39,11-8.49,21.51-17.49,32.37-26.11,24.56-19.5,49.32-38.75,73.75-58.4,10-8,19.35-16.88,29-25.35,19.07,10,37.55,10.08,55.11-3.46,9.42-7.25,14.2-17.37,17.19-28.52,8.78.72,13.55-5.85,19.46-10.53,30.91-24.47,61.93-48.8,92.84-73.27,4.49-3.55,7.67-7.54,7.58-14.23-.44-30.65-.27-61.3-.32-92Q1297.8,655,1297.88,616.07Z"/><path class="cls-12" d="M1105.86,916c-9.65,8.47-19,17.31-29,25.35-24.43,19.65-49.19,38.9-73.75,58.4-10.86,8.62-21.41,17.62-32.37,26.11-2.75,2.14-6.51,3-9.81,4.39-7.71-15.45-19.12-25.88-36.88-28.69-27-4.26-52.65,16-53.89,45.5-.18,4.31-.28,8.63-.42,13-1.87,1.17-4,2.09-5.57,3.55-3.87,3.52-7.23,7.66-11.31,10.91-16,12.77-32.24,25.24-48.31,37.93-22,17.39-44.24,34.54-65.76,52.54-6.07,5.07-15,7.84-17,17.18-9-2.14-17.77-4.55-27.37-2.62-22.13,4.46-38,22.9-38.48,45.59-.09,4.31-.29,8.61-.43,12.92-4.58,1.76-9.64,2.81-13.65,5.45-6.89,4.54-13.18,10-19.63,15.2-24.74,19.94-49.36,40-74.27,59.79-3.43,2.72-8.2,3.74-12.35,5.55q0-33,0-66c9.36.87,14.05-7,20.19-11.52,16.52-12.18,32.36-25.27,48.43-38.06q30.33-24.12,60.57-48.36c27.86-22.42,55.52-45.09,83.48-67.4,22-17.56,44.37-34.67,66.49-52.09,18.72-14.75,37.33-29.66,56-44.5s37.34-29.66,56-44.56c18.1-14.48,36-29.16,54.23-43.56,16.1-12.74,32.54-25.05,48.59-37.86s31.76-26,47.72-38.9c1.88-1.51,4.46-2.14,6.71-3.18.15,13.52.74,27.06.34,40.57C1083.76,888.06,1090,904.11,1105.86,916Z"/><path class="cls-7" d="M964.42,1158c8.78,2.27,13.3-5,18.87-9,15.25-11.11,30.11-22.77,44.88-34.52,12.18-9.69,23.87-20,36-29.7,17.33-13.85,35-27.29,52.31-41.12,12.69-10.12,25-20.77,37.66-30.85,20-15.84,40.27-31.28,60.26-47.1,12.46-9.86,24.58-20.16,36.93-30.17q20.45-16.56,41.07-32.93a17.23,17.23,0,0,1,3.46-1.65c.65,1.39,1.84,2.78,1.86,4.18.16,11.32,0,22.64.16,34,.14,6.9.83,13.78,1.27,20.67l7.71,22.22c-8.81,7.44-17.48,15-26.45,22.3-16,12.91-32.07,25.64-48.17,38.38-19.75,15.62-39.61,31.09-59.29,46.8-13.72,10.95-27.11,22.31-40.82,33.25-13.21,10.54-26.71,20.71-40,31.19q-27.67,21.89-55.16,44c-20.19,16.12-40.24,32.42-60.67,48.24-3.12,2.42-7.92,2.68-11.94,3.93Q964.42,1204,964.42,1158Z"/><path class="cls-8" d="M1513.33,800c-2.62,1.13-5.64,1.77-7.8,3.49-12.37,9.87-24.47,20.08-36.8,30q-28.11,22.62-56.44,45c-5.64,4.46-11.52,9.84-19.59,9.58-.27-3-.2-5.94-.2-8.9q-.06-82.92,0-165.84c0-26.19,10.38-46.69,34.18-58.71,37.87-19.12,84.7,7.26,86.56,49.52C1514.62,736,1513.39,768,1513.33,800Z"/><path class="cls-13" d="M1084,1394c.15,13.3.4,26.61.42,39.91,0,29.63.28,59.26-.11,88.88-.45,33.59-26.74,59.34-59.9,59.35a60,60,0,0,1-60.32-59.2c-.26-13.63.2-27.28.33-40.91,4.29-1.46,9.33-1.92,12.74-4.52,19.43-14.87,38.49-30.2,57.62-45.45,11.39-9.08,22.6-18.39,34-27.4C1073.67,1400.83,1078.93,1397.52,1084,1394Z"/><path class="cls-8" d="M869.74,1152c.11,40.93.81,81.87.12,122.79-.47,27.63-25.21,52.4-52.87,55.13-30.11,3-58.41-15.29-64.86-44.34-3.12-14-1.58-29-2.15-43.6,3-1.16,6.47-1.71,8.91-3.6,12.8-9.92,25.28-20.25,38-30.29q28.78-22.77,57.75-45.33C859.49,1159,864.69,1155.58,869.74,1152Z"/><path class="cls-13" d="M1178.87,1296c7.5,1,13.27-2.32,18.92-6.88,29.09-23.45,58.38-46.64,87.46-70.09,3-2.42,4.91-6.17,7.67-9,1.67-1.7,4-2.76,6-4.11.2,19.83.53,39.66.53,59.49,0,18.83-.35,37.67-.54,56.5-3,1-6.53,1.31-9,3.11q-20.6,15.32-40.73,31.27c-18.58,14.73-36.84,29.85-55.48,44.5-3.18,2.5-7.57,3.46-11.41,5.13-1.37-6.11-3.88-12.21-3.93-18.33C1178.22,1357.13,1178.66,1326.58,1178.87,1296Z"/><path class="cls-11" d="M1084,1394c-5.07,3.53-10.33,6.84-15.18,10.66-11.44,9-22.65,18.32-34,27.4-19.13,15.25-38.19,30.58-57.62,45.45-3.41,2.6-8.45,3.06-12.74,4.52-.16-25.45-.37-50.89-.43-76.34,0-11.23.28-22.46.43-33.69,10.77-.91,17.38-9.12,25.13-15,17.39-13.09,34.22-26.92,51.27-40.46,12.14-9.64,24.24-19.34,36.45-28.89,2-1.56,4.48-2.48,6.74-3.7Q1084,1339,1084,1394Z"/><path class="cls-9" d="M1297.72,694c0,30.65-.12,61.3.32,92,.09,6.69-3.09,10.68-7.58,14.23-30.91,24.47-61.93,48.8-92.84,73.27-5.91,4.68-10.68,11.25-19.46,10.53q0-46.57.07-93.14c0-3.62.32-7.23.5-10.85,5.35.4,9.6-1.76,13.48-5.31,5.15-4.69,10.39-9.3,15.86-13.6q40.29-31.59,80.79-62.9C1291.38,696.26,1294.75,695.39,1297.72,694Z"/><path class="cls-13" d="M1381.58,1154.63c2.33-3,4.17-6.58,7.05-8.9,23.68-19.08,47.56-37.9,71.35-56.85,14.22-11.32,28.27-22.87,42.63-34,3-2.31,7-3.28,10.55-4.87q0,49,0,98c-6-.54-8.31,4.74-12.07,7.73q-45,35.76-89.95,71.49c-5.13,4.06-10.29,8.6-17.77,6.74-.28-13.79-1.16-27.61-.66-41.37C1393.21,1178.49,1390,1165.89,1381.58,1154.63Z"/><path class="cls-14" d="M1393.36,1234c7.48,1.86,12.64-2.68,17.77-6.74q45-35.65,89.95-71.49c3.76-3,6.05-8.27,12.07-7.73v100c-2.12.72-4.67.92-6.32,2.23-27.34,21.78-54.49,43.8-81.89,65.52-7.41,5.87-15.49,10.9-23.27,16.32a38.77,38.77,0,0,1-8.16-23.9C1393.21,1283.44,1393.38,1258.7,1393.36,1234Z"/><path class="cls-5" d="M1297.72,694c-3,1.36-6.34,2.23-8.86,4.18q-40.53,31.29-80.79,62.9c-5.47,4.3-10.71,8.91-15.86,13.6-3.88,3.55-8.13,5.71-13.48,5.31q-.26-45.07-.48-90.14c0-3.29.32-6.58.5-9.86a16,16,0,0,0,12.88-3.87c3-2.57,6.09-5.08,9.19-7.56,22.18-17.71,44.19-35.64,66.65-53,8.52-6.58,15.22-19.05,26.31-21.82,3.46,6.31,5.14,14.82,5.75,22.28C1299.48,642.05,1297.77,668,1297.72,694Z"/><path class="cls-9" d="M869.74,1152c-5,3.58-10.25,7-15.12,10.76q-29,22.54-57.75,45.33c-12.7,10-25.18,20.37-38,30.29-2.44,1.89-5.91,2.44-8.91,3.6a76.3,76.3,0,0,1-.42-8.92c1.55-22.89-7.89-39.73-27.73-51,1.92-9.34,10.89-12.11,17-17.18,21.52-18,43.74-35.15,65.76-52.54,16.07-12.69,32.31-25.16,48.31-37.93,4.08-3.25,7.44-7.39,11.31-10.91,1.6-1.46,3.7-2.38,5.57-3.55Z"/><path class="cls-10" d="M381.18,846.64c-26.69,1.44-59.74-19.52-60.53-60-.64-33,27.46-60.52,60.41-60.57s60.37,27.24,60.52,60.43S414.7,846.64,381.18,846.64Z"/><path class="cls-3" d="M810.1,1506.14a60.22,60.22,0,1,1,60-60.27C870.16,1479.59,843.73,1506.12,810.1,1506.14Z"/><path class="cls-15" d="M1667.54,1266.27c-33.8,0-60.09-26.34-60-60.18a60.23,60.23,0,0,1,120.46.22C1727.92,1239.79,1701.24,1266.26,1667.54,1266.27Z"/><path class="cls-13" d="M1585.83,990.08c8.49-7.26,16.83-14.73,25.51-21.76,18.48-15,37.14-29.69,55.73-44.52q25.17-20.09,50.38-40.13c1.21-1,3-1.16,4.54-1.71,2,6.88,5.44,13.73,5.64,20.66.65,21.78.08,43.59,0,65.38-3.37,1.18-7.3,1.61-10,3.66-10.77,8.16-21.21,16.74-31.66,25.31-19.39,15.87-38.52,32-58.15,47.59-4.44,3.52-10.49,5-15.79,7.44-1.48-5.72-4.17-11.44-4.2-17.17C1607.71,1016.14,1600.48,1001.4,1585.83,990.08Z"/><path class="cls-9" d="M535.65,1324c4.15-1.81,8.92-2.83,12.35-5.55,24.91-19.74,49.53-39.85,74.27-59.79,6.45-5.2,12.74-10.66,19.63-15.2,4-2.64,9.07-3.69,13.65-5.45v76c-2.89,1.33-6.14,2.17-8.6,4.06q-22.46,17.2-44.57,34.83c-17.85,14.22-35.5,28.7-53.41,42.86-3.27,2.59-7.32,4.19-11,6.25-.77-3.18-2.17-6.36-2.2-9.54C535.57,1369.64,535.65,1346.81,535.65,1324Z"/><path class="cls-8" d="M538,1402c3.69-2.06,7.74-3.66,11-6.25,17.91-14.16,35.56-28.64,53.41-42.86q22.13-17.62,44.57-34.83c2.46-1.89,5.71-2.73,8.6-4.06.07,25.58,1,51.18,0,76.72-1.14,28.89-26.14,53.35-54.65,55.42C571.38,1448.29,544.65,1429.53,538,1402Z"/><path class="cls-2" d="M1295.5,597.51c-11.08,2.77-19.51,11.52-28,18.1-22.46,17.34-44.47,35.27-66.65,53-3.1,2.48-6.17,5-9.19,7.56a16,16,0,0,1-12.88,3.87c.33-24.87-1.12-49.94,1.5-74.56,2.69-25.19,26.22-45.11,50.92-47.55,27.57-2.72,52,11,62.31,35C1294.12,594.42,1294.94,595.9,1295.5,597.51Z"/><path class="cls-14" d="M1182.36,1406c3.84-1.67,8.23-2.63,11.41-5.13,18.64-14.65,36.9-29.77,55.48-44.5q20.1-16,40.73-31.27c2.42-1.8,5.94-2.11,9-3.11l0,60.23-.55.76.52.79c1.68,26.54-17.09,55.89-51.3,61.6C1216.44,1450.57,1189,1428.88,1182.36,1406Z"/><path class="cls-14" d="M1612,1052c5.3-2.42,11.35-3.92,15.79-7.44,19.63-15.55,38.76-31.72,58.15-47.59,10.45-8.57,20.89-17.15,31.66-25.31,2.7-2,6.63-2.48,10-3.66.07,22.23.91,44.49,0,66.68-1.09,27.62-24,51.31-51.55,55.13C1648.17,1093.68,1621.58,1078,1612,1052Z"/><path class="cls-15" d="M1401.67,1332.07c7.78-5.42,15.86-10.45,23.27-16.32,27.4-21.72,54.55-43.74,81.89-65.52,1.65-1.31,4.2-1.51,6.32-2.23.12,19.29,1,38.61.17,57.85-1.2,27.43-21.66,50.09-49.23,55.37C1435.1,1366.78,1410,1350,1401.67,1332.07Z"/><path class="cls-11" d="M1298.93,1383.77l-.52-.79.55-.76A1.09,1.09,0,0,1,1298.93,1383.77Z"/></g></g></svg>