<!-- Generator: Adobe Illustrator 24.1.1, SVG Export Plug-In  -->
<svg version="1.1" xmlns="http://www.w3.org/2000/svg" xmlns:xlink="http://www.w3.org/1999/xlink" x="0px" y="0px"
	 width="131.87px" height="130.3px" viewBox="0 0 131.87 130.3" style="enable-background:new 0 0 131.87 130.3;"
	 xml:space="preserve">
<defs>
</defs>
<path d="M125.07,36.7c-2.58,10.76-0.32,20.4,6.79,28.9c0,0.07,0.01,0.14,0.01,0.21c0,10.35-2.4,20.13-6.66,28.84
	c-9.75,4.46-15.77,11.95-18.06,22.51c-8.02,6.42-17.57,11.02-28.03,13.14c-8.78-4.19-17.56-4.19-26.35,0
	c-10.45-2.11-20-6.7-28.02-13.12c-2.28-10.58-8.32-18.09-18.1-22.55C2.4,85.93,0,76.15,0,65.81c0-0.06,0-0.11,0-0.17
	c7.14-8.52,9.41-18.18,6.81-28.97C11.52,27.18,18.44,19,26.9,12.78c9.12-0.2,16.65-3.77,22.59-10.71C54.75,0.72,60.26,0,65.93,0
	c5.69,0,11.21,0.72,16.47,2.07c5.94,6.93,13.46,10.5,22.56,10.71C113.44,19,120.37,27.2,125.07,36.7z"/>
</svg>
