<!-- Generator: Adobe Illustrator 24.1.1, SVG Export Plug-In  -->
<svg version="1.1" xmlns="http://www.w3.org/2000/svg" xmlns:xlink="http://www.w3.org/1999/xlink" x="0px" y="0px"
	 width="175.82px" height="144.94px" viewBox="0 0 175.82 144.94" style="enable-background:new 0 0 175.82 144.94;"
	 xml:space="preserve">
<defs>
</defs>
<g>
	<path d="M174.29,104.03l-2.13-0.57c0.95-5.1,1.47-10.35,1.47-15.72c0-5.37-0.52-10.62-1.47-15.72l2.13-0.57
		c0.99,5.28,1.54,10.72,1.54,16.29C175.82,93.31,175.28,98.75,174.29,104.03z M152.99,143.38c6.82-7.94,12.22-17.14,15.77-27.21
		l2.13,0.57c-3.66,10.44-9.26,19.98-16.34,28.19L152.99,143.38z M152.97,32.12l1.56-1.56c7.09,8.22,12.7,17.73,16.36,28.18
		l-2.13,0.57C165.2,49.24,159.79,40.06,152.97,32.12z M116.4,7.05l0.57-2.13c10.46,3.66,20,9.26,28.23,16.33l-1.56,1.55
		C135.69,16,126.49,10.6,116.4,7.05z M87.91,2.19c-5.38,0-10.65,0.5-15.75,1.45l-0.57-2.12C76.88,0.52,82.33,0,87.91,0
		s11.03,0.53,16.32,1.53l-0.57,2.13C98.56,2.7,93.29,2.19,87.91,2.19z M30.6,21.24C38.83,14.16,48.4,8.6,58.86,4.94l0.57,2.12
		c-10.08,3.55-19.31,8.92-27.27,15.73L30.6,21.24z M4.94,116.74l2.13-0.57c3.55,10.07,8.97,19.25,15.79,27.19l-1.56,1.55
		C14.21,136.71,8.6,127.19,4.94,116.74z M4.94,58.74C8.6,48.3,14.2,38.76,21.28,30.55l1.56,1.56c-6.82,7.94-12.22,17.14-15.77,27.21
		L4.94,58.74z M3.67,103.46l-2.13,0.57C0.54,98.75,0,93.31,0,87.74c0-5.57,0.54-11.01,1.54-16.29l2.13,0.57
		C2.72,77.12,2.2,82.37,2.2,87.74C2.2,93.11,2.72,98.36,3.67,103.46z"/>
</g>
</svg>
