<svg 
 xmlns="http://www.w3.org/2000/svg"
 xmlns:xlink="http://www.w3.org/1999/xlink">
<g>
<path
 d="M54.284,51.455 L51.444,48.604 C55.520,43.875 58.000,37.732 58.000,31.000 C58.000,24.563 55.739,18.659 51.980,14.020 L52.000,14.000 L51.861,13.861 C46.909,7.841 39.404,4.000 31.000,4.000 C16.088,4.000 4.000,16.088 4.000,31.000 C4.000,37.751 6.494,43.907 10.589,48.641 L7.717,51.456 C2.917,45.996 -0.000,38.841 -0.000,31.000 C-0.000,13.879 13.879,-0.000 31.000,-0.000 C48.121,-0.000 62.000,13.879 62.000,31.000 C62.000,38.840 59.083,45.996 54.284,51.455 ZM9.080,52.921 C9.080,52.920 9.080,52.920 9.079,52.920 L9.080,52.921 ZM13.433,51.478 C18.157,55.534 24.285,58.000 31.000,58.000 C37.732,58.000 43.875,55.520 48.604,51.444 L51.455,54.284 C45.996,59.083 38.840,62.000 31.000,62.000 C23.160,62.000 16.005,59.084 10.546,54.284 L13.433,51.478 Z"/>
</g>
</svg>