<?xml version="1.0" encoding="UTF-8"?>
<svg xmlns="http://www.w3.org/2000/svg" xmlns:xlink="http://www.w3.org/1999/xlink" viewBox="0 0 50 50" version="1.1" width="500px" height="500px">
<g id="surface1">
<path style=" " d="M 2 5 L 2 45 L 12 45 L 12 13 L 25 13 C 31.625 13 37 18.375 37 25 C 37 31.625 31.625 37 25 37 L 16 37 L 16 45 L 28 45 C 39.035156 45 48 36.035156 48 25 C 48 13.964844 39.035156 5 28 5 Z M 4 7 L 28 7 C 37.953125 7 46 15.046875 46 25 C 46 34.953125 37.953125 43 28 43 L 18 43 L 18 39 L 25 39 C 32.710938 39 39 32.710938 39 25 C 39 17.289063 32.710938 11 25 11 L 10 11 L 10 43 L 4 43 Z M 16 17 L 16 33 L 25 33 C 29.402344 33 33 29.402344 33 25 C 33 20.597656 29.402344 17 25 17 Z M 18 19 L 25 19 C 28.316406 19 31 21.683594 31 25 C 31 28.316406 28.316406 31 25 31 L 18 31 Z "/>
</g>
</svg>
