<?xml version="1.0" encoding="utf-8"?>
<!-- Svg Vector Icons : http://www.onlinewebfonts.com/icon -->
<!DOCTYPE svg PUBLIC "-//W3C//DTD SVG 1.1//EN" "http://www.w3.org/Graphics/SVG/1.1/DTD/svg11.dtd">
<svg version="1.1" xmlns="http://www.w3.org/2000/svg" xmlns:xlink="http://www.w3.org/1999/xlink" x="0px" y="0px" viewBox="0 0 1000 1000" enable-background="new 0 0 1000 1000" xml:space="preserve">
<metadata> Svg Vector Icons : http://www.onlinewebfonts.com/icon </metadata>
<g><path d="M981.1,474.5L817.7,270.3c-7.9-9.9-19.7-15.3-31.9-15.3c-4.5,0-9.1,0.8-13.5,2.3C756,263,745,278.5,745,295.8v122.5H418.3c-45.1,0-81.7,36.6-81.7,81.7c0,45.1,36.6,81.7,81.7,81.7H745v122.5c0,17.3,11,32.8,27.3,38.5c4.4,1.6,9,2.3,13.5,2.3c12.2,0,24-5.4,31.9-15.3L981,525.5C993,510.6,993,489.4,981.1,474.5L981.1,474.5z M581.7,826.7h-245H255v0c-0.2,0-0.4,0-0.6,0c-44.7,0-81-36.6-81-81.7v-81.7V336.7V255h0c0-0.2,0-0.4,0-0.6c0-44.7,36.6-81,81.7-81h81.7h245c45.1,0,81.7-36.6,81.7-81.7c0-45.1-36.6-81.7-81.7-81.7l-408.3,0C83.1,10,10,83.1,10,173.3v653.3C10,916.9,83.1,990,173.3,990h408.3c45.1,0,81.7-36.6,81.7-81.7C663.3,863.2,626.8,826.7,581.7,826.7L581.7,826.7z"/></g>
</svg>