<?xml version="1.0" encoding="utf-8"?>
<!-- Svg Vector Icons : http://www.onlinewebfonts.com/icon -->
<!DOCTYPE svg PUBLIC "-//W3C//DTD SVG 1.1//EN" "http://www.w3.org/Graphics/SVG/1.1/DTD/svg11.dtd">
<svg version="1.1" xmlns="http://www.w3.org/2000/svg" xmlns:xlink="http://www.w3.org/1999/xlink" x="0px" y="0px" viewBox="0 0 1000 1000" enable-background="new 0 0 1000 1000" xml:space="preserve">
<metadata> Svg Vector Icons : http://www.onlinewebfonts.com/icon </metadata>
<g><g transform="translate(0.000000,511.000000) scale(0.100000,-0.100000)"><path d="M1294.7,4069.7l-938-938L690.3,2798c182-182,343-331.3,354.7-331.3c30.3,0,1855,1824.7,1855,1855c0,14-149.3,172.7-333.7,357L2235,5010L1294.7,4069.7z"/><path d="M7088.3,4076.7L6155,3143.3l812-809.7l809.7-812L8710,2455l933.3,933.3l-812,812L8021.7,5010L7088.3,4076.7z"/><path d="M2461.3,2903l-938-938l345.3-345.3l343-343L3152,2217l938,938l-345.3,345.3l-343,343L2461.3,2903z"/><path d="M4533.3,2301c-637-165.7-1127-627.7-1344-1269.3c-88.7-266-105-704.7-37.3-994c91-380.4,263.7-676.7,550.7-947.3c212.3-203,424.7-331.3,714-431.7c212.3-72.3,235.7-77,583.3-77c347.7,0,371,4.7,583.3,77c289.3,100.3,501.7,228.7,714,431.7c287,273,459.7,567,550.7,947.3c39.7,165.7,44.3,252,35,492.3c-11.7,333.7-49,492.3-179.7,763c-242.7,499.3-700,870.3-1246,1010.3C5207.7,2366.3,4780.7,2366.3,4533.3,2301z M5163.3,1484.3c331.3-53.7,627.7-282.3,777-597.3c70-149.3,74.7-172.7,74.7-429.3c0-263.7-2.3-270.7-88.7-445.7c-105-214.7-284.7-389.7-506.3-494.7c-142.3-67.6-168-72.3-420-72.3c-254.3,0-277.7,4.7-427,74.7c-217,102.6-394.3,277.6-501.7,494.7c-84,170.3-86.3,179.7-86.3,443.3c0,256.7,4.7,280,74.7,427c39.7,86.3,123.7,212.3,186.7,277.7c203,217,387.3,303.3,742,345.3C5002.3,1507.7,5079.3,1498.3,5163.3,1484.3z"/><path d="M3686.3-2169.7c-9.4-7-16.3-228.7-16.3-490v-473.7h1330h1330l-4.7,485.3l-7,483l-1309,7C4290.7-2155.6,3693.3-2160.3,3686.3-2169.7z"/><path d="M3686.3-3826.3c-9.4-7-16.3-228.6-16.3-490V-4790h1330h1330l-4.7,485.3l-7,483l-1309,7C4290.7-3812.3,3693.3-3817,3686.3-3826.3z"/></g></g>
</svg>