<svg xmlns="http://www.w3.org/2000/svg" xmlns:xlink="http://www.w3.org/1999/xlink" version="1.1" id="Capa_1" x="0px" y="0px" width="279.623px" height="279.623px" viewBox="0 0 279.623 279.623" style="enable-background:new 0 0 279.623 279.623;" xml:space="preserve">
<g>
	<g>
		<path d="M0,213.943h279.623V36.258H0V213.943z M14.337,50.596h250.949v149.011H14.337V50.596z"></path>
		<path d="M221.271,243.364c3.963,0,7.169-3.211,7.169-7.168c0-3.958-3.206-7.169-7.169-7.169H57.486    c-3.962,0-7.168,3.211-7.168,7.169c0,3.957,3.207,7.168,7.168,7.168H221.271z"></path>
		<path d="M215.853,111.538c-19.173-0.004-38.336,0-57.504,0c-0.76,0-1.525,0-2.375,0c0,12.804,0,25.37,0,38.064    c4.854,0,9.53,0,14.412,0c0-9.553,0-18.962,0-28.469c4.672,0,9.129,0,13.856,0c0,9.593,0,19.051,0,28.474c4.886,0,9.493,0,14.29,0    c0-9.558,0-18.972,0-28.469c4.64,0,9.097,0,13.708,0c0,4.851,0,9.565,0,14.276c0,4.704,0,9.404,0,14.188c4.938,0,9.67,0,14.515,0    c0-9.161,0-18.164,0-27.167C226.745,115.478,222.815,111.538,215.853,111.538z"></path>
		<path d="M138.971,111.538c-14.309-0.004-28.619,0-42.928,0c-0.758,0-1.524,0-2.455,0c0,3.288,0,6.314,0,9.525    c13.94,0,27.718,0,41.544,0c0,6.495,0,12.807,0,19.126c-9.075,0-17.994,0-27.193,0c0-4.359,0-8.618,0-12.97    c-4.952,0-9.621,0-14.405,0c0,7.483,0,14.832,0,22.537c0.966,0,1.664,0,2.366,0c14.309,0,28.616,0.005,42.925,0    c6.812-0.005,10.982-4.121,11.024-10.897c0.037-5.51,0.019-11.015,0-16.526C149.832,115.725,145.608,111.538,138.971,111.538z"></path>
		<path d="M71.964,126.938c-8.791,0-17.319,0-26.015,0c0-5.134,0-10.119,0-15.285c-5.145,0-9.978,0-14.862,0    c0,12.732,0,25.35,0,37.997c4.976,0,9.808,0,14.888,0c0-4.573,0-9.03,0-13.469c8.788,0,17.329,0,26.049,0    c0,4.578,0,8.998,0,13.408c5.148,0,10.109,0,15.049,0c0-12.736,0-25.3,0-37.955c-5.036,0-9.945,0-15.109,0    C71.964,116.732,71.964,121.78,71.964,126.938z"></path>
		<path d="M233.004,149.612c4.998,0,9.833,0,14.729,0c0-12.694,0-25.251,0-37.93c-5.064,0-9.881,0-14.729,0    C233.004,124.438,233.004,137.044,233.004,149.612z"></path>
	</g>
</g>
</svg>