<?xml version="1.0" encoding="utf-8"?>
<!-- Generator: Adobe Illustrator 21.0.2, SVG Export Plug-In . SVG Version: 6.00 Build 0)  -->
<svg version="1.1" id="Capa_1" xmlns="http://www.w3.org/2000/svg" xmlns:xlink="http://www.w3.org/1999/xlink" x="0px" y="0px"
	 viewBox="0 0 168.1 84.1" style="enable-background:new 0 0 168.1 84.1;" xml:space="preserve">
<path d="M10.2,81l-1.4-2.8c-0.8-1.7-0.2-3.8,1.5-4.6L151.6,2.9c1.7-0.8,3.8-0.2,4.6,1.5l1.4,2.8c0.8,1.7,0.2,3.8-1.5,4.6L14.8,82.5
	C13.1,83.4,11,82.7,10.2,81z"/>
<g>
	<path d="M63.4,41.5l32.7-16.3c-3.4-2.4-7.5-3.9-12-3.9C72.8,21.3,63.6,30.3,63.4,41.5z"/>
	<path d="M84,62.7c11.4,0,20.7-9.3,20.7-20.7c0-5-1.8-9.6-4.8-13.2l-36,18C66.1,56,74.3,62.7,84,62.7z"/>
	<path d="M167.1,39.4c-0.9-1-14.6-15.3-35.4-26.4l-8.6,4.3c17.3,8.3,30.4,19.7,35.8,24.7c-6.7,6.3-25.5,22.5-49.4,30.2
		c8.6-7.3,14.3-18.1,14.3-30.2c0-8.1-2.5-15.5-6.7-21.7l-6.8,3.4c3.6,5.2,5.8,11.5,5.8,18.3c0,17.6-14.4,32-32,32
		c-14.2,0-26.2-9.3-30.4-22l-6.8,3.4c2.4,6.6,6.6,12.4,11.9,16.8C50,69.4,42,65.5,35,61.4l-8.1,4.1C41.6,74.9,61.7,84.1,84,84.1
		c45.4,0,81.5-37.8,83-39.4C168.4,43.2,168.4,40.9,167.1,39.4z"/>
	<path d="M9.3,42c6.7-6.3,25.5-22.5,49.4-30.2C50,19.1,44.4,29.9,44.4,42c0,2.9,0.3,5.8,1,8.5l7.1-3.5c-0.3-1.6-0.4-3.3-0.4-5
		c0-17.6,14.3-32,32-32c9,0,17.1,3.7,22.9,9.7l7-3.5c-1.4-1.6-2.9-3.1-4.5-4.4c2.6,0.8,5.2,1.8,7.7,2.8l9-4.5C113.8,4.4,99.5,0,84,0
		C38.6,0,2.5,37.8,1,39.4c-1.4,1.5-1.4,3.8,0,5.2c0.7,0.7,8.5,8.9,21,17.6l8-4C20.2,51.9,12.9,45.5,9.3,42z"/>
</g>
</svg>
