<?xml version="1.0" encoding="iso-8859-1"?>
<!-- Generator: Adobe Illustrator 17.1.0, SVG Export Plug-In . SVG Version: 6.00 Build 0)  -->
<!DOCTYPE svg PUBLIC "-//W3C//DTD SVG 1.1//EN" "http://www.w3.org/Graphics/SVG/1.1/DTD/svg11.dtd">
<svg version="1.1" id="Capa_1" xmlns="http://www.w3.org/2000/svg" xmlns:xlink="http://www.w3.org/1999/xlink" x="0px" y="0px"
	 viewBox="0 0 225.693 225.693" style="enable-background:new 0 0 225.693 225.693;" xml:space="preserve">
<path d="M8.427,78.346h208.839c2.391,0,4.596,0.971,6.211,2.732s2.391,4.044,2.183,6.425l-10.222,117.15
	c-0.383,4.385-3.99,7.692-8.393,7.692H21.4c-4.301,0-7.9-3.224-8.374-7.497L0.053,87.698c-0.267-2.413,0.478-4.737,2.097-6.546
	C3.77,79.342,5.999,78.346,8.427,78.346z M214.513,63.346V44.811c0-4.143-2.524-7.465-6.667-7.465h-83.333v-2.341
	c0-12.219-8.176-21.659-19.25-21.659H30.43c-11.074,0-20.917,9.44-20.917,21.659v24.951c0,1.231,0.68,2.379,1.267,3.39H214.513z"/>
</svg>
