<?xml version="1.0" encoding="utf-8"?>
<!DOCTYPE svg PUBLIC "-//W3C//DTD SVG 1.1//EN" "http://www.w3.org/Graphics/SVG/1.1/DTD/svg11.dtd">
<svg version="1.1" xmlns="http://www.w3.org/2000/svg" xmlns:xlink="http://www.w3.org/1999/xlink" x="0px" y="0px" viewBox="0 0 1000 1000" enable-background="new 0 0 1000 1000" xml:space="preserve">
<g><path d="M93.7,80.7c-1.2,0-2.5,0.2-3.6,0.5H23.2c-7.3,0-13.2,7.4-13.2,16.6v43c0,9.2,5.9,16.6,13.2,16.6h56.1v155v374v217.5c0,8.5,6.4,15.3,14.4,15.3h58.4c7.9,0,14.3-6.8,14.3-15.3V688.5H538v141.2c0,6.8,5.1,12.3,11.5,12.3H857c6.4,0,11.5-5.5,11.5-12.3V688.5h119.8c1,0,1.8-0.9,1.8-2.1v-374c0-1.2-0.8-2.1-1.8-2.1H166.4V96c0-8.5-6.4-15.3-14.3-15.3H93.7z M241.2,385.5h278.6c5.1,0,9.2,4.4,9.2,9.8v127.9c0,5.4-4.1,9.8-9.2,9.8H241.2c-5.1,0-9.2-4.4-9.2-9.8V395.3C232,389.8,236.1,385.5,241.2,385.5z M638.5,387.9h179.3c11.2,0,20.1,9,20.1,20.2v185c0,11.2-9,20.1-20.1,20.1H638.5c-11.2,0-20.1-9-20.1-20.1v-185C618.4,397,627.4,387.9,638.5,387.9L638.5,387.9z M662.2,415.5c-12.8,0-23.1,10-23.1,22.3v134.9c0,12.4,10.3,22.3,23.1,22.3h133.3c12.8,0,23.1-10,23.1-22.3V437.8c0-12.4-10.3-22.3-23.1-22.3H662.2z"/></g>
</svg>