<?xml version="1.0" encoding="utf-8"?>
<!-- Svg Vector Icons : http://www.onlinewebfonts.com/icon -->
<!DOCTYPE svg PUBLIC "-//W3C//DTD SVG 1.1//EN" "http://www.w3.org/Graphics/SVG/1.1/DTD/svg11.dtd">
<svg version="1.1" xmlns="http://www.w3.org/2000/svg" xmlns:xlink="http://www.w3.org/1999/xlink" x="0px" y="0px" viewBox="0 0 1000 1000" enable-background="new 0 0 1000 1000" xml:space="preserve">
<metadata> Svg Vector Icons : http://www.onlinewebfonts.com/icon </metadata>
<g><path d="M500,576.1c22.1,0,41.3-8.1,57.4-24.2c16.2-16.2,24.3-35.3,24.3-57.4V86.1c0-22.1-8.1-41.3-24.3-57.4C541.3,12.5,522.1,4.4,500,4.4c-22.1,0-41.3,8.1-57.4,24.3c-16.2,16.2-24.2,35.3-24.2,57.4v408.3c0,22.1,8.1,41.3,24.2,57.4C458.7,568,477.9,576.1,500,576.1z"/><path d="M938.7,286.8c-34.2-68.5-82.4-125.9-144.5-172.3c-17.9-13.6-38.1-18.9-60.6-16c-22.5,3-40.4,13.6-53.6,31.9c-13.6,17.9-18.8,38-15.6,60.3c3.2,22.3,13.7,40.3,31.6,53.9c41.7,31.5,73.9,70,96.7,115.5c22.8,45.5,34.1,94,34.1,145.5c0,44.2-8.6,86.5-25.8,126.7c-17.2,40.2-40.5,75-69.9,104.3c-29.4,29.3-64.1,52.6-104.3,69.9c-40.2,17.2-82.4,25.8-126.7,25.8c-44.2,0-86.4-8.6-126.6-25.8c-40.2-17.2-75-40.5-104.3-69.9c-29.3-29.4-52.6-64.1-69.9-104.3c-17.2-40.2-25.8-82.4-25.8-126.7c0-51.5,11.4-99.9,34.1-145.5c22.8-45.5,55-84,96.7-115.5c17.9-13.6,28.4-31.6,31.6-53.9c3.2-22.3-2-42.4-15.6-60.3c-13.2-18.3-30.9-28.9-53.3-31.9c-22.3-3-42.6,2.3-60.9,16C143.8,160.9,95.6,218.3,61.4,286.8C27.1,355.2,10,428.2,10,505.6c0,66.4,13,129.7,38.9,190.1c26,60.4,60.8,112.5,104.6,156.3c43.8,43.8,95.9,78.7,156.3,104.6c60.4,26,123.8,38.9,190.1,38.9c66.4,0,129.7-13,190.1-38.9c60.4-25.9,112.5-60.8,156.3-104.6s78.7-95.9,104.6-156.3C977,635.3,990,571.9,990,505.6C990,428.2,972.9,355.2,938.7,286.8z"/></g>
</svg>