<?xml version="1.0" encoding="utf-8"?>
<!-- Svg Vector Icons : http://www.onlinewebfonts.com/icon -->
<!DOCTYPE svg PUBLIC "-//W3C//DTD SVG 1.1//EN" "http://www.w3.org/Graphics/SVG/1.1/DTD/svg11.dtd">
<svg version="1.1" xmlns="http://www.w3.org/2000/svg" xmlns:xlink="http://www.w3.org/1999/xlink" x="0px" y="0px" viewBox="0 0 1000 1000" enable-background="new 0 0 1000 1000" xml:space="preserve">
<metadata> Svg Vector Icons : http://www.onlinewebfonts.com/icon </metadata>
<g><path d="M500,132.3V10L279.6,204.8L500,399.5V268c161.9,0,293.2,131.3,293.2,293.2c0,161.9-131.3,293.2-293.2,293.2c-161.9,0-293.2-131.3-293.2-293.2c0-38.9,7.6-76,21.4-110l-127.7-46.3c-19,48.4-29.4,101.2-29.4,156.3C71.1,798,263.1,990,500,990c236.9,0,428.9-192,428.9-428.9C928.9,324.3,736.9,132.3,500,132.3z"/><path d="M408.4,569c0,48.3,39.1,87.4,87.4,87.4c48.3,0,87.4-39.1,87.4-87.4c0-48.3-39.1-87.4-87.4-87.4C447.6,481.7,408.4,520.8,408.4,569z"/></g>
</svg>