<svg xmlns="http://www.w3.org/2000/svg" width="24" height="24" viewBox="0 0 24 24"><path d="M4.5.257l3.771 3.771c.409 1.889-2.33 4.66-4.242 4.242l-3.771-3.77c-.172.584-.258 1.188-.258 1.792 0 1.602.607 3.202 1.83 4.426 1.351 1.351 3.164 1.958 4.931 1.821.933-.072 1.852.269 2.514.931l9.662 9.662c.578.578 1.337.868 2.097.868 1.661 0 3.001-1.364 2.966-3.03-.016-.737-.306-1.47-.868-2.033l-9.662-9.663c-.662-.661-1.002-1.581-.931-2.514.137-1.767-.471-3.58-1.82-4.93-1.225-1.224-2.825-1.83-4.428-1.83-.603 0-1.207.086-1.791.257zm17.5 20.743c0 .553-.447 1-1 1-.553 0-1-.448-1-1s.447-1 1-1 1 .447 1 1z"/></svg>