<svg xmlns="http://www.w3.org/2000/svg" width="24" height="24" viewBox="0 0 24 24"><path d="M15.273 19.469c-.662-.662-1.582-1.002-2.514-.931-1.767.137-3.58-.47-4.931-1.821-1.223-1.224-1.83-2.824-1.83-4.426 0-.604.086-1.208.258-1.792l3.771 3.771c1.912.417 4.652-2.353 4.242-4.242l-3.769-3.771c.583-.171 1.187-.257 1.79-.257 1.603 0 3.202.606 4.428 1.83 1.35 1.351 1.957 3.164 1.82 4.93-.072.933.268 1.853.93 2.514l2.843 2.843c1.066-1.793 1.689-3.88 1.689-6.117 0-6.627-5.373-12-12-12s-12 5.373-12 12 5.373 12 12 12c2.236 0 4.323-.623 6.115-1.688l-2.842-2.843z"/></svg>