<?xml version="1.0" encoding="iso-8859-1"?>
<!-- Generator: Adobe Illustrator 19.0.0, SVG Export Plug-In . SVG Version: 6.00 Build 0)  -->
<svg version="1.1" id="Layer_1" xmlns="http://www.w3.org/2000/svg" xmlns:xlink="http://www.w3.org/1999/xlink" x="0px" y="0px"
	 viewBox="0 0 512 512" style="enable-background:new 0 0 512 512;" xml:space="preserve">
<g>
	<g>
		<path d="M382.739,5.635C380.885,2.167,377.27,0,373.333,0h-85.333c-3.906,0-7.5,2.135-9.365,5.563l-128,234.667
			c-1.802,3.302-1.729,7.313,0.188,10.552c1.927,3.229,5.417,5.219,9.177,5.219h88.427l-69.781,124.052l-23.396-15.594
			c-3.156-2.094-7.156-2.354-10.552-0.729c-3.406,1.635-5.677,4.958-5.99,8.719l-10.667,128c-0.344,4.042,1.635,7.917,5.104,10.01
			c1.698,1.031,3.615,1.542,5.521,1.542c1.99,0,3.979-0.552,5.729-1.667l117.333-74.667c3.563-2.271,5.448-6.417,4.813-10.594
			c-0.625-4.177-3.656-7.583-7.729-8.698l-30.854-8.417l132.917-199.375c2.177-3.271,2.385-7.479,0.531-10.948
			c-1.854-3.469-5.469-5.635-9.406-5.635h-86.74L382.208,16.583C384.385,13.313,384.593,9.104,382.739,5.635z"/>
	</g>
</g>
</svg>
