<svg width="141" height="123" viewBox="0 0 141 123" fill="none" xmlns="http://www.w3.org/2000/svg">
<path d="M0 70.0484V16.7335C0 14.9479 2.59045 14.7206 2.90141 16.4789L9.1269 51.6817C9.51289 53.8643 12.635 53.8918 13.0593 51.7163L15.6242 38.5678C16.041 36.4308 19.0891 36.4042 19.5432 38.5336L24.5968 62.2335C25.0442 64.3319 28.0329 64.3488 28.504 62.2556L31.6554 48.2542C32.1415 46.0947 35.256 46.2076 35.5844 48.3966L37.0287 58.0218C37.3526 60.1801 40.4067 60.3332 40.9448 58.2182L42.9808 50.2162C43.4971 48.1871 46.3892 48.2149 46.8664 50.2536L51.5 70.0484H121L124.129 41.8964C124.391 39.5407 127.807 39.5173 128.101 41.8692L129.295 51.4169C129.581 53.7057 132.875 53.7721 133.253 51.4967L137 28.9515C137.389 26.5195 141 26.6475 141 29.1106V70.0484H121H51.5H0Z" fill="#04E2B5"/>
<path d="M55.3448 87.5186L51.5 70.0485H92.5H101H121L119.137 86.3043C118.873 88.6107 115.552 88.6908 115.177 86.3997L114.144 80.0934C113.878 78.469 111.874 77.8433 110.731 79.0279L108.232 81.6188C107.203 82.6851 105.413 82.3019 104.911 80.9079L101 70.0485H92.5L87.0705 90.2942C86.571 92.1568 83.9847 92.3034 83.2779 90.5092L81.1252 85.0438C80.3834 83.1606 77.634 83.4446 77.293 85.4398L72.8849 111.226C72.5088 113.426 69.3571 113.45 68.9475 111.256L64.0124 84.8156C63.6276 82.7542 60.7335 82.5991 60.1307 84.6077L59.2136 87.6636C58.6208 89.6392 55.7881 89.533 55.3448 87.5186Z" fill="#C4C4C4"/>
</svg>
